<svg width="20" height="17" viewBox="0 0 20 17" fill="none" xmlns="http://www.w3.org/2000/svg">
<path d="M3.33333 3.4H5V13.6H3.33333V3.4ZM5.83333 3.4H6.66667V13.6H5.83333V3.4ZM7.5 3.4H10V13.6H7.5V3.4ZM10.8333 3.4H11.6667V13.6H10.8333V3.4ZM13.3333 3.4H15V13.6H13.3333V3.4ZM15.8333 3.4H16.6667V13.6H15.8333V3.4ZM1.66667 1.7V5.1H0V1.7C0 1.24913 0.175595 0.81673 0.488155 0.497918C0.800716 0.179107 1.22464 0 1.66667 0H5V1.7H1.66667ZM18.3333 0C18.7754 0 19.1993 0.179107 19.5118 0.497918C19.8244 0.81673 20 1.24913 20 1.7V5.1H18.3333V1.7H15V0H18.3333ZM1.66667 11.9V15.3H5V17H1.66667C1.22464 17 0.800716 16.8209 0.488155 16.5021C0.175595 16.1833 0 15.7509 0 15.3V11.9H1.66667ZM18.3333 15.3V11.9H20V15.3C20 15.7509 19.8244 16.1833 19.5118 16.5021C19.1993 16.8209 18.7754 17 18.3333 17H15V15.3H18.3333Z" fill="#363636"/>
</svg>
