<svg width="20" height="20" viewBox="0 0 20 20" fill="none" xmlns="http://www.w3.org/2000/svg">
<path d="M6.72342 0.547888C4.70357 1.24859 2.96166 2.57855 1.75354 4.34241C0.545416 6.10628 -0.0652313 8.21107 0.0112892 10.3476C0.0878097 12.4842 0.847464 14.5399 2.17867 16.2128C3.50988 17.8858 5.34247 19.0877 7.40727 19.6421C9.08125 20.074 10.8351 20.093 12.518 19.6974C14.0426 19.3549 15.4521 18.6224 16.6085 17.5716C17.8121 16.4445 18.6857 15.0107 19.1354 13.4242C19.6243 11.6991 19.7113 9.88484 19.3897 8.12082H9.98949V12.0202H15.4335C15.3247 12.6421 15.0915 13.2357 14.748 13.7654C14.4044 14.2951 13.9575 14.7501 13.434 15.1031C12.7693 15.5428 12.0199 15.8387 11.234 15.9717C10.4458 16.1183 9.63739 16.1183 8.84921 15.9717C8.05036 15.8066 7.29466 15.4768 6.63024 15.0036C5.56284 14.248 4.76137 13.1746 4.34019 11.9365C3.9119 10.6752 3.9119 9.30786 4.34019 8.04659C4.63999 7.1625 5.1356 6.35755 5.79003 5.6918C6.53894 4.91594 7.48708 4.36136 8.53043 4.08889C9.57378 3.81642 10.672 3.8366 11.7047 4.1472C12.5113 4.39483 13.249 4.82748 13.8589 5.41068C14.4727 4.8 15.0855 4.18774 15.6972 3.5739C16.0131 3.24382 16.3574 2.92953 16.6685 2.59155C15.7376 1.72525 14.6449 1.05116 13.453 0.607903C11.2825 -0.180204 8.90761 -0.201383 6.72342 0.547888Z" fill="white"/>
<path d="M6.72323 0.547679C8.90724 -0.202102 11.2821 -0.18148 13.4528 0.606114C14.6449 1.05238 15.7371 1.72972 16.6668 2.59924C16.3509 2.93722 16.0176 3.25309 15.6955 3.58159C15.0827 4.19332 14.4704 4.80295 13.8587 5.41047C13.2488 4.82728 12.5111 4.39462 11.7045 4.14699C10.6722 3.8353 9.57397 3.81396 8.53034 4.08531C7.48671 4.35666 6.53799 4.91023 5.78826 5.68527C5.13383 6.35102 4.63822 7.15598 4.33842 8.04007L1.06445 5.50523C2.23634 3.18133 4.26538 1.40372 6.72323 0.547679Z" fill="#E33629"/>
<path d="M0.195834 8.01701C0.371806 7.14489 0.663956 6.30031 1.06447 5.50586L4.33844 8.04702C3.91015 9.30829 3.91015 10.6757 4.33844 11.9369C3.24764 12.7792 2.15632 13.6258 1.06447 14.4765C0.0618277 12.4807 -0.243961 10.2068 0.195834 8.01701Z" fill="#F8BD00"/>
<path d="M9.98947 8.11914H19.3897C19.7113 9.88316 19.6243 11.6974 19.1354 13.4226C18.6857 15.009 17.8121 16.4428 16.6085 17.5699C15.5519 16.7455 14.4906 15.9274 13.434 15.103C13.9578 14.7497 14.4049 14.2942 14.7485 13.7639C15.0921 13.2336 15.3251 12.6394 15.4335 12.017H9.98947C9.98789 10.7187 9.98947 9.41894 9.98947 8.11914Z" fill="#587DBD"/>
<path d="M1.06299 14.4761C2.15484 13.6338 3.24616 12.7873 4.33696 11.9365C4.75897 13.175 5.56159 14.2485 6.63016 15.0036C7.29666 15.4747 8.05398 15.8017 8.85387 15.9638C9.64205 16.1104 10.4505 16.1104 11.2387 15.9638C12.0245 15.8308 12.7739 15.5349 13.4387 15.0952C14.4953 15.9196 15.5566 16.7377 16.6132 17.5621C15.4569 18.6135 14.0474 19.3466 12.5227 19.6895C10.8397 20.0851 9.08591 20.0662 7.41193 19.6342C6.08798 19.2807 4.85131 18.6576 3.77945 17.8038C2.64495 16.9031 1.71834 15.768 1.06299 14.4761Z" fill="#319F43"/>
</svg>
