<svg width="400" height="400" viewBox="0 0 400 400" fill="none" xmlns="http://www.w3.org/2000/svg">
<g clip-path="url(#clip0_2007_7297)">
<rect x="68.8569" y="128.768" width="14.1764" height="173.102" fill="#363636"/>
<rect x="104.671" y="90.7158" width="14.1764" height="211.154" fill="#363636"/>
<rect x="136.754" y="128.768" width="14.1764" height="173.102" fill="#363636"/>
<rect x="169.584" y="90.7158" width="14.1764" height="211.154" fill="#363636"/>
<rect x="202.413" y="114.593" width="14.1764" height="187.278" fill="#363636"/>
<rect x="234.972" y="128.596" width="13.1143" height="139.886" fill="#363636"/>
<rect x="267.028" y="163.57" width="13.1143" height="134.057" fill="#363636"/>
<rect x="302" y="199.999" width="14.5714" height="68.4858" fill="#363636"/>
<rect x="73.3335" y="184.729" width="143.256" height="23.13" fill="#363636"/>
<path d="M68.8569 128.767C68.8569 119.29 76.5401 111.606 86.0179 111.606H133.77C143.248 111.606 150.931 119.29 150.931 128.767H68.8569Z" fill="#363636"/>
<path d="M234.972 268.484H316.572V277.627C316.572 288.673 307.617 297.627 296.572 297.627H254.972C243.926 297.627 234.972 288.673 234.972 277.627V268.484Z" fill="#363636"/>
<path d="M302.542 73.9163L348.705 73.9163C349.81 73.9163 350.705 74.8118 350.705 75.9163L350.705 123.913C350.705 125.018 351.601 125.913 352.705 125.913L367.186 125.913C368.291 125.913 369.186 125.018 369.186 123.913L369.186 56.2849C369.186 55.1803 368.291 54.2849 367.186 54.2849L302.542 54.2849C301.438 54.2849 300.542 55.1803 300.542 56.2849L300.542 71.9163C300.542 73.0209 301.438 73.9163 302.542 73.9163Z" stroke="#363636" stroke-width="4"/>
</g>
<defs>
<clipPath id="clip0_2007_7297">
<rect width="400" height="400" fill="white"/>
</clipPath>
</defs>
</svg>
