<svg width="18" height="15" viewBox="0 0 18 15" fill="none" xmlns="http://www.w3.org/2000/svg">
<path d="M1.8 15C1.305 15 0.8814 14.8166 0.5292 14.4497C0.177 14.0828 0.0006 13.6412 0 13.125V1.875C0 1.35937 0.1764 0.918125 0.5292 0.55125C0.882 0.184375 1.3056 0.000625 1.8 0H16.2C16.695 0 17.1189 0.18375 17.4717 0.55125C17.8245 0.91875 18.0006 1.36 18 1.875V13.125C18 13.6406 17.8239 14.0822 17.4717 14.4497C17.1195 14.8172 16.6956 15.0006 16.2 15H1.8ZM9 8.4375L1.8 3.75V13.125H16.2V3.75L9 8.4375ZM9 6.5625L16.2 1.875H1.8L9 6.5625ZM1.8 3.75V1.875V13.125V3.75Z" fill="#5D5D5D"/>
</svg>
