<svg width="16" height="17" viewBox="0 0 16 17" fill="none" xmlns="http://www.w3.org/2000/svg">
<path d="M12.8205 16.9999C12.1233 16.9999 11.1438 16.7319 9.67704 15.8614C7.89346 14.7989 6.5139 13.818 4.73996 11.9385C3.02961 10.1227 2.1973 8.94714 1.03242 6.69538C-0.283565 4.15293 -0.0592336 2.82024 0.191532 2.25066C0.490164 1.56989 0.930969 1.16272 1.50073 0.758586C1.82435 0.533346 2.16682 0.340266 2.52379 0.181793C2.55952 0.165476 2.59274 0.149918 2.62239 0.135877C2.79921 0.0512557 3.06712 -0.0766253 3.40648 0.0599835C3.63295 0.150297 3.83513 0.335098 4.15163 0.667134C4.80069 1.34714 5.68766 2.8616 6.01486 3.60536C6.23455 4.10664 6.37994 4.43754 6.3803 4.80866C6.3803 5.24315 6.17454 5.57822 5.92485 5.93985C5.87805 6.00778 5.83161 6.07267 5.7866 6.13566C5.51476 6.51513 5.45511 6.62479 5.4944 6.8206C5.57406 7.21411 6.16811 8.38553 7.14438 9.42034C8.12065 10.4552 9.19159 11.0464 9.56345 11.1306C9.75563 11.1742 9.86101 11.1082 10.2297 10.8092C10.2825 10.7663 10.3368 10.7219 10.3936 10.6775C10.7744 10.3766 11.0752 10.1637 11.4746 10.1637H11.4767C11.8243 10.1637 12.1218 10.3239 12.6148 10.588C13.2578 10.9325 14.7263 11.8626 15.3703 12.5529C15.6836 12.8883 15.8583 13.1023 15.9437 13.3425C16.0723 13.7042 15.9512 13.9876 15.8722 14.1774C15.859 14.2089 15.8444 14.2434 15.829 14.2817C15.6787 14.6603 15.4958 15.0233 15.2828 15.3662C14.9031 15.9696 14.5184 16.4367 13.8761 16.7543C13.5463 16.9201 13.1854 17.004 12.8205 16.9999Z" fill="white"/>
</svg>
